<svg id="Grupo_4400" data-name="Grupo 4400" xmlns="http://www.w3.org/2000/svg" width="63.515" height="74.262" viewBox="0 0 63.515 74.262">
  <path id="Trazado_724" data-name="Trazado 724" d="M5.871-.045,37.263-.053c2.04,2.066,14.295,14.445,18.58,18.784V68.244a5.908,5.908,0,0,1-5.871,5.944H5.871A5.908,5.908,0,0,1,0,68.244V5.9A5.908,5.908,0,0,1,5.871-.045Z" transform="translate(7.671 0.073)" fill="#fff"/>
  <g id="Grupo_1192" data-name="Grupo 1192">
    <path id="Trazado_722" data-name="Trazado 722" d="M1507,662.327H1475.71a6.121,6.121,0,0,0-6.076,6.152v61.93a6.121,6.121,0,0,0,6.076,6.152H1519.4a6.121,6.121,0,0,0,6.076-6.152V681.034Zm15.063,68.082a2.682,2.682,0,0,1-2.662,2.7H1475.71a2.682,2.682,0,0,1-2.662-2.7v-61.93a2.682,2.682,0,0,1,2.662-2.7h29.877l.017.017v16.655h16.45l.01.01Z" transform="translate(-1462.015 -662.327)" fill="#fc7c6b"/>
    <path id="Trazado_723" data-name="Trazado 723" d="M1474.331,957.591a2.369,2.369,0,0,1-2.283,2.433h-50.231a2.369,2.369,0,0,1-2.283-2.433V933.26a2.369,2.369,0,0,1,2.283-2.433h50.231a2.369,2.369,0,0,1,2.283,2.433Z" transform="translate(-1419.534 -896.668)" fill="#f15642"/>
    <text id="PDF" transform="translate(23.992 54.488)" fill="#f8f8f8" font-size="18" font-family="Montserrat-ExtraBold, Montserrat" font-weight="800" letter-spacing="0.04em" style="isolation: isolate"><tspan x="-20.475" y="0">PDF</tspan></text>
  </g>
</svg>
